<?xml version="1.0" encoding="utf-8"?>
<!-- Generator: Adobe Illustrator 23.1.1, SVG Export Plug-In . SVG Version: 6.00 Build 0)  -->
<svg version="1.1" id="Layer_1" xmlns="http://www.w3.org/2000/svg" xmlns:xlink="http://www.w3.org/1999/xlink" x="0px" y="0px"
	 viewBox="0 0 100 100" style="enable-background:new 0 0 100 100;" xml:space="preserve">
<path d="M10.9,4c-1.1,0-2,0.9-2,2c0,0.1,0,0.1,0,0.2L16,85c0.1,0.8,0.6,1.5,1.4,1.7l32,9.1c0.4,0.1,0.7,0.1,1.1,0l32.1-9.1
	c0.8-0.2,1.4-0.9,1.4-1.7l7-78.9C91.1,5,90.3,4,89.2,3.9c-0.1,0-0.1,0-0.2,0L10.9,4L10.9,4z M13.1,8h73.8l-6.7,75.3L50,91.9
	l-30.1-8.6L13.1,8z M38,20c-1.1,0-2,0.9-2,2v37.3l-11.5-3.2c-1.1-0.3-2.2,0.3-2.5,1.4c0,0.2-0.1,0.4-0.1,0.5v9.9
	c0,0.9,0.6,1.7,1.5,1.9l22,6.1c1.1,0.3,2.2-0.3,2.5-1.4c0-0.2,0.1-0.4,0.1-0.5V22c0-1.1-0.9-2-2-2H38z M54,20c-1.1,0-2,0.9-2,2v34
	c0,1.1,0.9,2,2,2c0.1,0,0.2,0,0.3,0l11.5-2l-0.2,3.5l-12.1,3.3c-0.9,0.2-1.5,1-1.5,1.9V74c0,1.1,0.9,2,2,2c0.2,0,0.4,0,0.5-0.1
	l20-5.5c0.8-0.2,1.4-0.9,1.5-1.8l2.1-24.5c0.1-1.1-0.7-2.1-1.8-2.2c-0.2,0-0.3,0-0.5,0L64,43.7V32h13.3c1,0,1.9-0.8,2-1.8l0.7-8
	c0.1-1.1-0.7-2.1-1.8-2.2c-0.1,0-0.1,0-0.2,0H54z M40,24h4v47.4l-18-5v-5.7l11.5,3.2c1.1,0.3,2.2-0.3,2.5-1.4c0-0.2,0.1-0.4,0.1-0.5
	L40,24L40,24z M56,24h19.8l-0.3,4H62c-1.1,0-2,0.9-2,2v16c0,1.1,0.9,2,2,2c0.1,0,0.2,0,0.3,0l11.6-1.6L72.1,67L56,71.4v-5.1L68,63
	c0.8-0.2,1.4-0.9,1.5-1.8l0.5-7.5c0.1-1.1-0.8-2.1-1.9-2.1c-0.2,0-0.3,0-0.5,0l-11.7,2V24H56z"/>
</svg>
