<svg id="Layer_1" data-name="Layer 1" xmlns="http://www.w3.org/2000/svg" viewBox="0 0 180.15 180.15"><title>python</title><path d="M111.1,21c-15.9,0-26.68,3.8-33.54,9.3S68,42.91,68,48.8V68h39.16v3.91H48.8A24.73,24.73,0,0,0,29.22,81.6C24.07,88.17,21,98,21,111.1s3.05,22.93,8.2,29.49a24.7,24.7,0,0,0,19.58,9.67H68v23.13c0,5.89,2.69,13,9.54,18.48s17.64,9.3,33.54,9.3,26.68-3.79,33.53-9.3,9.55-12.59,9.55-18.48V154.18H115v-3.92h58.38A24.68,24.68,0,0,0,193,140.59c5.16-6.56,8.2-16.35,8.2-29.49s-3-22.93-8.2-29.5a24.71,24.71,0,0,0-19.58-9.67H154.18V48.8c0-6-2.68-13.14-9.55-18.6S127,21,111.1,21Zm0,7.84c14.67,0,23.56,3.42,28.64,7.46s6.6,8.74,6.6,12.48V95.43a11.75,11.75,0,0,1-11.74,11.75h-47a19.61,19.61,0,0,0-18,12,18.38,18.38,0,0,0-1.22,3.67,19.42,19.42,0,0,0-.37,3.91v15.67H48.8a16.31,16.31,0,0,1-13.34-6.73c-3.76-4.79-6.6-12.68-6.6-24.6s2.84-19.81,6.6-24.6A16.31,16.31,0,0,1,48.8,79.77H115V60.19H75.85V48.8c0-3.5,1.52-8.27,6.61-12.36S96.44,28.86,111.1,28.86ZM91.52,40.6a7.84,7.84,0,1,0,7.83,7.84A7.85,7.85,0,0,0,91.52,40.6Zm62.66,39.17h19.21a16.3,16.3,0,0,1,13.34,6.73c3.77,4.79,6.61,12.68,6.61,24.6s-2.84,19.81-6.61,24.6a16.3,16.3,0,0,1-13.34,6.73H107.18V162h39.16v11.38c0,3.51-1.51,8.28-6.6,12.36s-14,7.59-28.64,7.59-23.55-3.5-28.64-7.59-6.61-8.85-6.61-12.36V126.76a11.07,11.07,0,0,1,.25-2.32A11.78,11.78,0,0,1,87.6,115h47a19.66,19.66,0,0,0,19.58-19.58Zm-23.5,86.16a7.83,7.83,0,1,0,7.83,7.83A7.84,7.84,0,0,0,130.68,165.93Z" transform="translate(-21.02 -21.02)"/></svg>