<svg xmlns="http://www.w3.org/2000/svg" viewBox="0 0 200 200"><title>Asset 3</title><g id="Layer_2" data-name="Layer 2"><g id="Layer_1-2" data-name="Layer 1"><polygon points="120.79 158.42 131.19 137.62 131.19 137.62 137.62 124.75 126.4 124.75 116.83 105.61 147.2 105.61 158.42 83.17 105.61 83.17 96.04 64.03 167.99 64.03 179.21 41.58 62.38 41.58 120.79 158.42"/><polygon points="194.39 11.22 200 0 188.78 0 187.13 0 0 0 94.39 188.78 94.39 188.78 100 200 105.61 188.78 111.22 177.56 33.66 22.44 188.78 22.44 193.57 12.87 193.57 12.87 194.33 11.35 194.39 11.22 194.39 11.22"/></g></g></svg>