<?xml version="1.0" standalone="no"?>
<!DOCTYPE svg PUBLIC "-//W3C//DTD SVG 20010904//EN"
 "http://www.w3.org/TR/2001/REC-SVG-20010904/DTD/svg10.dtd">
<svg version="1.0" xmlns="http://www.w3.org/2000/svg"
 width="700.000000pt" height="700.000000pt" viewBox="0 0 700.000000 700.000000"
 preserveAspectRatio="xMidYMid meet">
<metadata>
Created by potrace 1.14, written by Peter Selinger 2001-2017
</metadata>
<g transform="translate(0.000000,700.000000) scale(0.100000,-0.100000)"
fill="#000000" stroke="none">
<path d="M1747 3505 c962 -1922 1750 -3495 1753 -3495 3 0 92 174 199 388
l193 387 -722 1445 c-397 795 -727 1454 -733 1465 -6 11 -12 22 -12 25 -1 6
-928 1859 -947 1893 -7 12 -13 24 -13 27 -1 3 -65 132 -143 288 -78 156 -142
284 -142 285 0 1 1221 2 2714 2 l2714 0 196 392 196 393 -3500 0 -3500 0 1747
-3495z"/>
<path d="M3198 3515 c559 -1117 1016 -2033 1016 -2037 3 -35 54 57 306 562
160 320 288 585 285 588 -3 4 -90 6 -194 6 l-188 0 -166 332 c-91 182 -164
333 -162 335 2 2 240 4 530 3 l527 -1 194 389 c107 213 194 390 194 393 0 3
-415 5 -923 5 l-922 0 -167 334 -167 334 1232 1 c678 0 1244 0 1259 0 27 1 38
21 223 391 107 214 195 391 195 392 0 2 -920 3 -2044 3 l-2043 0 1015 -2030z"/>
</g>
</svg>
