<?xml version="1.0" encoding="utf-8"?>
<!-- Generator: Adobe Illustrator 26.3.1, SVG Export Plug-In . SVG Version: 6.00 Build 0)  -->
<svg version="1.1" id="Layer_1" xmlns="http://www.w3.org/2000/svg" xmlns:xlink="http://www.w3.org/1999/xlink" x="0px" y="0px"
	 viewBox="0 0 68 76" style="enable-background:new 0 0 68 76;" xml:space="preserve">
<style type="text/css">
	.st0{fill-rule:evenodd;clip-rule:evenodd;}
</style>
<g>
	<path class="st0" d="M62,68l-28,8L6,68L0,0h68C66,22.7,64,45.3,62,68z M64.1,3.5H3.9l5.5,61.8l24.7,7l24.7-7L64.1,3.5z"/>
	<path d="M13.2,13c-1.5,0-2.8,1.3-2.8,2.8c0,0.1,0,0.3,0,0.4l1.1,6.7c0.1,0.7,0.7,1.2,1.4,1.2h32.6l-0.7,5.6H24.3
		c-0.8,0-1.4,0.6-1.4,1.4l0,0v8.3c0,0.8,0.6,1.4,1.4,1.4h19.2l-1,8.1l-8.4,2.6L26.9,49l-0.4-3.1l0,0c-0.2-1.3-1.4-2.3-2.7-2.3H18
		c-1.6,0-2.8,1.3-2.8,2.9c0,0.1,0,0.3,0,0.4l0,0l1.4,8.9c0.2,1,0.9,1.9,1.9,2.2l14.7,5l0,0c0.3,0.1,0.6,0.1,0.9,0.1
		c0.3,0,0.5,0,0.8-0.1L51,57.9c1-0.3,1.8-1.2,1.9-2.3l4-34l0.7-5.6c0.2-1.5-0.9-2.9-2.5-3.1c-0.1,0-0.2,0-0.3,0H13.2z M13.2,15.8
		h41.7l-0.7,5.6l-4,34L34,60.2l-14.6-5L18,46.4h5.6l0.6,3.9c0.1,0.5,0.4,0.9,0.9,1.1l8.5,2.9c0.3,0.1,0.6,0.1,0.8,0l9.7-3
		c0.5-0.2,0.9-0.6,1-1.2l1.2-10.6c0.1-0.8-0.5-1.4-1.2-1.5c0,0,0,0,0,0H45H25.7v-5.6H46c0.7,0,1.3-0.5,1.4-1.2l1-8.3
		c0.1-0.8-0.5-1.4-1.2-1.5c0,0,0,0,0,0c-0.1,0-0.1,0-0.2,0h-33L13.2,15.8z"/>
</g>
</svg>
