<?xml version="1.0" encoding="utf-8"?>
<!-- Generator: Adobe Illustrator 23.1.1, SVG Export Plug-In . SVG Version: 6.00 Build 0)  -->
<svg version="1.1" id="Capa_1" xmlns="http://www.w3.org/2000/svg" xmlns:xlink="http://www.w3.org/1999/xlink" x="0px" y="0px"
	 viewBox="0 0 48 48" style="enable-background:new 0 0 48 48;" xml:space="preserve">
<g>
	<g>
		<path d="M48,21.9c0-0.1,0-0.2-0.1-0.3c0,0,0-0.1,0-0.1c0-0.1-0.1-0.2-0.2-0.3c0,0,0,0,0,0L42,15.6V10c0,0,0,0,0-0.1
			c0-0.1,0-0.2-0.1-0.3c0,0,0-0.1,0-0.1c0-0.1-0.1-0.2-0.2-0.3l-9-9c-0.1-0.1-0.2-0.1-0.3-0.2c0,0-0.1,0-0.1,0c-0.1,0-0.2,0-0.3-0.1
			c0,0,0,0-0.1,0H7C6.4,0,6,0.4,6,1v14.6l-5.7,5.7c0,0,0,0,0,0c-0.1,0.1-0.1,0.2-0.2,0.3c0,0,0,0.1,0,0.1c0,0.1,0,0.2-0.1,0.3
			c0,0,0,0,0,0.1v19c0,0.6,0.4,1,1,1h5v5c0,0.6,0.4,1,1,1h34c0.6,0,1-0.4,1-1v-5h5c0.6,0,1-0.4,1-1L48,21.9C48,22,48,22,48,21.9z
			 M44.6,21H42v-2.6L44.6,21z M38.6,9H33V3.4L38.6,9z M8,2h23v8c0,0.6,0.4,1,1,1h8v5v5H8v-5V2z M6,18.4V21H3.4L6,18.4z M40,46H8v-4
			h32V46z M46,40H2V23h5h34h5V40z"/>
		<path d="M23.8,27.9c0.1-0.1,0.3-0.2,0.5-0.3c0.2-0.1,0.4-0.1,0.6-0.1c0.7,0,1.2,0.3,1.7,0.8l1.1-1.5c-0.3-0.4-0.7-0.7-1.2-0.9
			c-0.5-0.2-1-0.3-1.6-0.3c-0.4,0-0.8,0.1-1.2,0.2c-0.4,0.1-0.8,0.4-1.1,0.7s-0.6,0.7-0.8,1.1c-0.2,0.4-0.3,1-0.3,1.6
			c0,0.5,0.1,0.9,0.2,1.3c0.1,0.4,0.3,0.7,0.5,0.9c0.2,0.3,0.5,0.5,0.8,0.7s0.6,0.4,0.9,0.5c0.5,0.3,1,0.5,1.3,0.8s0.5,0.7,0.5,1.2
			c0,0.5-0.1,0.9-0.4,1.2c-0.3,0.3-0.6,0.4-1.1,0.4c-0.4,0-0.8-0.1-1.1-0.3c-0.4-0.2-0.7-0.4-0.9-0.7l-1.1,1.5
			c0.3,0.4,0.8,0.7,1.4,1s1.2,0.4,1.9,0.4c0.5,0,0.9-0.1,1.3-0.2s0.8-0.4,1.1-0.7c0.3-0.3,0.6-0.7,0.7-1.1s0.3-1,0.3-1.6
			c0-0.5-0.1-1-0.2-1.3s-0.4-0.7-0.6-1c-0.2-0.3-0.5-0.5-0.8-0.7s-0.6-0.4-0.9-0.5c-0.5-0.2-0.9-0.5-1.2-0.8
			c-0.3-0.3-0.5-0.7-0.5-1.2c0-0.3,0-0.5,0.1-0.8C23.5,28.2,23.7,28,23.8,27.9z"/>
		<path d="M15.6,28.9c0.2-0.4,0.5-0.7,0.8-0.9c0.3-0.2,0.7-0.3,1.1-0.3c0.7,0,1.3,0.3,1.8,1l1.2-1.4c-0.3-0.5-0.8-0.8-1.3-1.1
			c-0.5-0.3-1.1-0.4-1.8-0.4c-0.7,0-1.3,0.2-1.8,0.5c-0.6,0.3-1,0.7-1.4,1.3c-0.4,0.6-0.7,1.2-0.9,2c-0.2,0.8-0.3,1.6-0.3,2.5
			c0,0.9,0.1,1.8,0.3,2.5s0.5,1.4,0.9,2c0.4,0.6,0.8,1,1.4,1.3s1.2,0.5,1.8,0.5c0.7,0,1.4-0.1,1.9-0.4c0.5-0.3,0.9-0.7,1.2-1.2
			l-1.2-1.4c-0.2,0.3-0.4,0.5-0.7,0.7s-0.6,0.3-1,0.3c-0.4,0-0.8-0.1-1.1-0.3c-0.3-0.2-0.6-0.5-0.8-0.9s-0.4-0.9-0.5-1.4
			C15,33.2,15,32.6,15,32c0-0.6,0.1-1.2,0.2-1.7C15.2,29.7,15.4,29.3,15.6,28.9z"/>
		<path d="M31.4,27.9c0.1-0.1,0.3-0.2,0.5-0.3c0.2-0.1,0.4-0.1,0.6-0.1c0.7,0,1.2,0.3,1.7,0.8l1.1-1.5c-0.3-0.4-0.7-0.7-1.2-0.9
			c-0.5-0.2-1-0.3-1.6-0.3c-0.4,0-0.8,0.1-1.2,0.2c-0.4,0.1-0.8,0.4-1.1,0.7s-0.6,0.7-0.8,1.1c-0.2,0.4-0.3,1-0.3,1.6
			c0,0.5,0.1,0.9,0.2,1.3c0.1,0.4,0.3,0.7,0.5,0.9c0.2,0.3,0.5,0.5,0.8,0.7s0.6,0.4,0.9,0.5c0.5,0.3,1,0.5,1.3,0.8s0.5,0.7,0.5,1.2
			c0,0.5-0.1,0.9-0.4,1.2c-0.3,0.3-0.6,0.4-1.1,0.4c-0.4,0-0.8-0.1-1.1-0.3c-0.4-0.2-0.7-0.4-0.9-0.7l-1.1,1.5
			c0.3,0.4,0.8,0.7,1.4,1s1.2,0.4,1.9,0.4c0.5,0,0.9-0.1,1.3-0.2s0.8-0.4,1.1-0.7c0.3-0.3,0.6-0.7,0.7-1.1s0.3-1,0.3-1.6
			c0-0.5-0.1-1-0.2-1.3s-0.4-0.7-0.6-1c-0.2-0.3-0.5-0.5-0.8-0.7s-0.6-0.4-0.9-0.5c-0.5-0.2-0.9-0.5-1.2-0.8
			c-0.3-0.3-0.5-0.7-0.5-1.2c0-0.3,0-0.5,0.1-0.8C31.2,28.2,31.3,28,31.4,27.9z"/>
	</g>
</g>
</svg>
