<?xml version="1.0" encoding="utf-8"?>
<!-- Generator: Adobe Illustrator 26.3.1, SVG Export Plug-In . SVG Version: 6.00 Build 0)  -->
<svg version="1.1" id="Layer_1" xmlns="http://www.w3.org/2000/svg" xmlns:xlink="http://www.w3.org/1999/xlink" x="0px" y="0px"
	 viewBox="0 0 68 76" style="enable-background:new 0 0 68 76;" xml:space="preserve">
<style type="text/css">
	.st0{fill-rule:evenodd;clip-rule:evenodd;}
</style>
<g>
	<path class="st0" d="M62,68l-28,8L6,68L0,0h68C66,22.7,64,45.3,62,68z M64.1,3.5H3.9l5.5,61.8l24.7,7l24.7-7L64.1,3.5z"/>
	<g>
		<path d="M34.1,63.2c-0.3,0-0.6,0-0.9-0.1l-14.7-5c-1-0.3-1.7-1.2-2-2.3l-1.4-8.9l0-0.4c0-1.7,1.3-3,2.9-3h5.8c1.4,0,2.6,1,2.8,2.4
			l0.4,3l7.1,2.5l8.3-2.6l1-7.9H24.3c-0.9,0-1.5-0.6-1.5-1.5v-8.3c0-0.9,0.6-1.5,1.5-1.5h20.4l0.7-5.4H12.9c-0.8,0-1.4-0.5-1.5-1.3
			l-1.1-6.7l0-0.4c0-1.5,1.3-2.8,2.8-2.9v-0.1h42c0.8,0.1,1.5,0.5,2,1.1c0.5,0.6,0.7,1.3,0.6,2.1L57,21.6l-4,34
			c-0.1,1.1-0.9,2.1-2,2.4l-16.1,5.1C34.6,63.2,34.4,63.2,34.1,63.2z M34,60.1l16.1-4.8l4-33.9l0.7-5.5H13.3l0.8,5.4h33.1
			c0.7,0.1,1.4,0.7,1.3,1.6l-1,8.3c-0.1,0.7-0.7,1.3-1.5,1.3H25.8v5.4l19.3,0c0.7,0.1,1.4,0.7,1.3,1.6l-1.2,10.6
			c-0.1,0.6-0.5,1-1.1,1.3l-9.7,3c-0.1,0-0.2,0.1-0.4,0.1c-0.1,0-0.3,0-0.5-0.1l-8.5-2.9c-0.5-0.2-0.9-0.6-1-1.2l-0.6-3.8h-5.4
			l1.4,8.6L34,60.1z"/>
	</g>
</g>
</svg>
