<?xml version="1.0" encoding="utf-8"?>
<!-- Generator: Adobe Illustrator 26.3.1, SVG Export Plug-In . SVG Version: 6.00 Build 0)  -->
<svg version="1.1" id="Layer_1" xmlns="http://www.w3.org/2000/svg" xmlns:xlink="http://www.w3.org/1999/xlink" x="0px" y="0px"
	 viewBox="0 0 92 84.1" style="enable-background:new 0 0 92 84.1;" xml:space="preserve">
<path d="M48.4,0c-0.7,0-1.5,0-2.4,0c-1.7,0-3.4,0-4,0c-23.2,0-42,18.8-42,42s18.8,42,42,42h8c23.2,0,42-18.8,42-42s-18.8-42-42-42
	c0,0,0,0,0,0C49.5,0,49,0,48.4,0z M50,4.1c17.5,0,32.1,11.9,36.5,28h-73C17.9,15.9,32.5,4.1,50,4.1z M26.1,7.6
	C15.2,15.2,8,27.8,8,42.1s7.2,26.9,18.1,34.5C13,70.5,4,57.4,4,42.1S13,13.6,26.1,7.6z M12.6,36.1h74.8c0.2,1.3,0.3,2.6,0.4,4H12.2
	C12.3,38.7,12.4,37.4,12.6,36.1z M12.2,44.1h75.6c-0.1,1.4-0.2,2.7-0.4,4H12.6C12.4,46.7,12.3,45.4,12.2,44.1z M13.5,52.1h73
	c-4.4,16.1-19,28-36.5,28S17.9,68.2,13.5,52.1z"/>
</svg>
