<?xml version="1.0" encoding="utf-8"?>
<!-- Generator: Adobe Illustrator 26.3.1, SVG Export Plug-In . SVG Version: 6.00 Build 0)  -->
<svg version="1.1" id="Layer_1" xmlns="http://www.w3.org/2000/svg" xmlns:xlink="http://www.w3.org/1999/xlink" x="0px" y="0px"
	 viewBox="0 0 64 94" style="enable-background:new 0 0 64 94;" xml:space="preserve">
<g>
	<path d="M17.1,94.2c-6.5,0-12.3-3.6-15.3-9.4c-2.1-4.1-2.4-8.7-1-13.1C2.2,67.6,5.1,64.1,9,62c-3.3-1.7-5.9-4.4-7.5-7.7
		C-2.5,46.1,0.9,36.1,9,32c-5.6-2.9-9.2-8.9-9.2-15.2C-0.1,7.4,7.5-0.2,16.9-0.2h30.2c7.4,0,13.9,4.7,16.2,11.7
		c1.4,4.3,1.1,9-0.9,13c-2,3.9-5.2,6.8-9.3,8.3C59.6,35,64.1,41.1,64.2,48c0,8.9-7.3,16.2-16.2,16.2c-5.8-0.1-11-3.1-13.8-8.1V77
		c0,6.5-3.6,12.4-9.4,15.4C22.4,93.6,19.8,94.2,17.1,94.2z M17,64.2C9.9,64.2,4.2,69.9,4.2,77S9.9,89.8,17,89.8S29.8,84.1,29.8,77
		V64.2H17z M48,36.2c-6.5,0-11.8,5.3-11.8,11.8c0,6.5,5.3,11.8,11.8,11.8S59.8,54.5,59.8,48C59.8,41.5,54.5,36.2,48,36.2z M17,34.2
		C9.9,34.2,4.2,39.9,4.2,47c0,7.1,5.7,12.8,12.8,12.8h12.8V34.2H17z M34.2,39.9c1.4-2.4,3.3-4.3,5.7-5.7h-5.7V39.9z M47,29.8
		c7.1,0,12.8-5.7,12.8-12.8S54.1,4.2,47,4.2H34.2v25.6H47z M17,4.2C9.9,4.2,4.2,9.9,4.2,17S9.9,29.8,17,29.8h12.8V4.2H17z"/>
</g>
</svg>
