<svg id="Layer_1" data-name="Layer 1" xmlns="http://www.w3.org/2000/svg" viewBox="0 0 64 94"><title>figma</title><path d="M63,30a16.87,16.87,0,0,0-7.58,32,16.65,16.65,0,0,0,0,30A16.92,16.92,0,1,0,80,107V85.31A15.87,15.87,0,0,0,94,94a16,16,0,0,0,16-16A15.83,15.83,0,0,0,98.43,62.9,16.88,16.88,0,0,0,93,30H63Zm0,4H76V60H63a13,13,0,0,1,0-26Zm17,0H93a13,13,0,0,1,0,26H80ZM63,64H76V90H63a13,13,0,0,1,0-26Zm17,0h6.69A15.87,15.87,0,0,0,80,70.69Zm14,2A12,12,0,1,1,82,78,12,12,0,0,1,94,66ZM63,94H76v13A13,13,0,1,1,63,94Z" transform="translate(-46 -30)"/></svg>