<?xml version="1.0" encoding="utf-8"?>
<!-- Generator: Adobe Illustrator 26.3.1, SVG Export Plug-In . SVG Version: 6.00 Build 0)  -->
<svg version="1.1" id="Layer_1" xmlns="http://www.w3.org/2000/svg" xmlns:xlink="http://www.w3.org/1999/xlink" x="0px" y="0px"
	 viewBox="0 0 18 24" style="enable-background:new 0 0 18 24;" xml:space="preserve">
<g>
	<g>
		<g>
			<path d="M0.5,19.7c-0.3,0-0.6-0.3-0.6-0.6l0-0.1L3.1,0.8C3.1,0.4,3.5,0,4-0.1c0.1,0,0.1,0,0.2,0c0.4,0,0.8,0.2,0.9,0.6L8,5.3
				C8,5.5,8.1,5.6,8,5.8C8,6,7.9,6.1,7.7,6.2C7.6,6.2,7.5,6.3,7.4,6.3C7.2,6.3,7,6.1,6.9,6L4.2,1.3L1.1,19.2
				C1,19.5,0.8,19.7,0.5,19.7L0.5,19.7z"/>
		</g>
		<g>
			<path d="M9,24.1c-0.5,0-1-0.1-1.4-0.4l-7.4-4.1c-0.3-0.2-0.4-0.5-0.2-0.8c0,0,0.1-0.1,0.1-0.1L13.9,4.9c0.2-0.2,0.5-0.3,0.8-0.3
				c0.1,0,0.2,0,0.3,0.1c0.4,0.1,0.7,0.5,0.8,0.9L18.1,19c0,0.3-0.1,0.5-0.3,0.6l-7.4,4.1C10,24,9.5,24.1,9,24.1z M8.2,22.7
				c0.3,0.1,0.5,0.2,0.8,0.2l0,0c0.3,0,0.6-0.1,0.8-0.2l7-3.9l-2.2-13L1.5,19L8.2,22.7z"/>
		</g>
		<g>
			<path d="M0.5,19.7c-0.3,0-0.6-0.3-0.6-0.6c0-0.1,0-0.2,0.1-0.3L8,3.1c0.2-0.4,0.5-0.6,1-0.6c0,0,0,0,0,0c0.4,0,0.8,0.2,1,0.6
				l2.4,4.3c0.1,0.1,0.1,0.3,0,0.5c-0.1,0.2-0.2,0.3-0.3,0.3c-0.1,0-0.2,0.1-0.3,0.1c-0.2,0-0.4-0.1-0.5-0.3L9,3.9L1,19.4
				C0.9,19.6,0.7,19.7,0.5,19.7z"/>
		</g>
	</g>
</g>
</svg>
