<?xml version="1.0" encoding="utf-8"?>
<!-- Generator: Adobe Illustrator 26.3.1, SVG Export Plug-In . SVG Version: 6.00 Build 0)  -->
<svg version="1.1" id="Layer_1" xmlns="http://www.w3.org/2000/svg" xmlns:xlink="http://www.w3.org/1999/xlink" x="0px" y="0px"
	 viewBox="0 0 82 92.1" style="enable-background:new 0 0 82 92.1;" xml:space="preserve">
<path d="M1.6,0C0.6,0.2-0.1,1.1,0,2.2l7,78.9c0.1,0.8,0.7,1.5,1.4,1.7l32,9.2c0.4,0.1,0.8,0.1,1.1,0l32-9.2c0.8-0.2,1.3-0.9,1.4-1.7
	L82,2.2c0.1-0.6-0.1-1.1-0.5-1.5C81.2,0.2,80.6,0,80.1,0H1.9C1.8,0,1.8,0,1.6,0C1.6,0,1.6,0,1.6,0z M4.1,4h73.8l-6.7,75.3L41,87.9
	l-30.2-8.6L4.1,4z M16.1,16.1c-1,0.2-1.7,1.1-1.6,2.2l2.7,29.6c0.1,1,0.9,1.8,1.9,1.9H51L50.1,59L41,60.9L31.8,59l-0.3-3.2
	c-0.1-1.1-0.9-1.9-2-1.9h-9.8c-0.6,0-1.1,0.2-1.5,0.6c-0.4,0.4-0.6,1-0.5,1.5l1.1,12.2c0.1,0.8,0.6,1.5,1.4,1.8l19.9,6.1l0.2,0.1
	c0.4,0.1,0.8,0.1,1.1,0L61.7,70c0.8-0.2,1.4-0.9,1.4-1.8l2.6-30.1c0.1-0.6-0.1-1.1-0.5-1.5S64.4,36,63.8,36h-34l-0.5-6.2h35.4
	c1,0,1.9-0.8,2-1.8l0.9-9.7c0.1-0.6-0.1-1.1-0.5-1.5s-0.9-0.6-1.5-0.6H16.4C16.3,16.1,16.2,16.1,16.1,16.1z M18.6,20.1h44.8
	l-0.5,5.7H27.1c-0.6,0-1.1,0.2-1.5,0.6s-0.6,1-0.5,1.5L26,38.2c0.1,1,0.9,1.8,1.9,1.8h33.7l-2.4,26.6L41,72.1l-18.2-5.5L22,57.8h5.8
	l0.2,2.9c0.1,0.9,0.7,1.6,1.6,1.8l11.1,2.3c0.3,0.1,0.5,0.1,0.8,0l10.9-2.3c0.9-0.2,1.5-0.9,1.6-1.8l1.2-12.9c0-0.6-0.2-1.1-0.5-1.5
	c-0.4-0.4-0.9-0.6-1.5-0.6H20.9L18.6,20.1z"/>
</svg>
