<?xml version="1.0" encoding="utf-8"?>
<!-- Generator: Adobe Illustrator 26.3.1, SVG Export Plug-In . SVG Version: 6.00 Build 0)  -->
<svg version="1.1" id="Layer_1" xmlns="http://www.w3.org/2000/svg" xmlns:xlink="http://www.w3.org/1999/xlink" x="0px" y="0px"
	 viewBox="0 0 82.1 92" style="enable-background:new 0 0 82.1 92;" xml:space="preserve">
<path d="M2,0.1c-1.1,0-2,0.9-2,2c0,0.1,0,0.1,0,0.2l7.1,78.8c0.1,0.8,0.6,1.5,1.4,1.7l32,9.1c0.4,0.1,0.7,0.1,1.1,0l32.1-9.1
	c0.8-0.2,1.4-0.9,1.4-1.7l7-78.9c0.1-1.1-0.7-2.1-1.8-2.2c-0.1,0-0.1,0-0.2,0L2,0.1L2,0.1z M4.2,4.1H78l-6.7,75.3L41.1,88L11,79.4
	L4.2,4.1z M29.1,16.1c-1.1,0-2,0.9-2,2v37.3l-11.5-3.2c-1.1-0.3-2.2,0.3-2.5,1.4c0,0.2-0.1,0.4-0.1,0.5V64c0,0.9,0.6,1.7,1.5,1.9
	l22,6.1c1.1,0.3,2.2-0.3,2.5-1.4c0-0.2,0.1-0.4,0.1-0.5v-52c0-1.1-0.9-2-2-2H29.1z M45.1,16.1c-1.1,0-2,0.9-2,2v34c0,1.1,0.9,2,2,2
	c0.1,0,0.2,0,0.3,0l11.5-2l-0.2,3.5l-12.1,3.3c-0.9,0.2-1.5,1-1.5,1.9v9.3c0,1.1,0.9,2,2,2c0.2,0,0.4,0,0.5-0.1l20-5.5
	c0.8-0.2,1.4-0.9,1.5-1.8l2.1-24.5c0.1-1.1-0.7-2.1-1.8-2.2c-0.2,0-0.3,0-0.5,0l-11.8,1.8V28.1h13.3c1,0,1.9-0.8,2-1.8l0.7-8
	c0.1-1.1-0.7-2.1-1.8-2.2c-0.1,0-0.1,0-0.2,0H45.1z M31.1,20.1h4v47.4l-18-5v-5.7L28.6,60c1.1,0.3,2.2-0.3,2.5-1.4
	c0-0.2,0.1-0.4,0.1-0.5L31.1,20.1L31.1,20.1z M47.1,20.1h19.8l-0.3,4H53.1c-1.1,0-2,0.9-2,2v16c0,1.1,0.9,2,2,2c0.1,0,0.2,0,0.3,0
	L65,42.5l-1.8,20.6l-16.1,4.4v-5.1l12-3.3c0.8-0.2,1.4-0.9,1.5-1.8l0.5-7.5c0.1-1.1-0.8-2.1-1.9-2.1c-0.2,0-0.3,0-0.5,0l-11.7,2
	L47.1,20.1L47.1,20.1z"/>
</svg>
