<?xml version="1.0" encoding="utf-8"?>
<!-- Generator: Adobe Illustrator 26.3.1, SVG Export Plug-In . SVG Version: 6.00 Build 0)  -->
<svg version="1.1" id="Layer_1" xmlns="http://www.w3.org/2000/svg" xmlns:xlink="http://www.w3.org/1999/xlink" x="0px" y="0px"
	 viewBox="0 0 11 24" style="enable-background:new 0 0 11 24;" xml:space="preserve">
<g>
	<path d="M6,24c-0.1,0-0.1,0-0.2,0l-0.6-0.2c-0.2-0.1-0.3-0.3-0.3-0.5c0,0,0-1.5-0.3-2.3c-0.4-0.3-1.4-1.1-2.3-2.4
		c-0.3-0.5-0.6-0.9-0.9-1.4C0.6,15.6,0.1,14,0,12.3c0-0.4,0-0.8,0-1.2c0.2-3.9,1.7-7.4,4.2-9.6c0.4-0.4,0.6-0.7,0.7-1.1
		C5,0.2,5.2,0,5.4,0c0.2,0,0.4,0.1,0.5,0.4C6,0.8,6.2,1.2,6.5,1.6C6.6,1.7,6.8,2,7,2.2c0.9,1,2.9,3.1,3.8,7.3
		c0.9,5.6-1.7,9.1-3.3,10.6c-0.4,0.4-0.6,0.6-0.8,0.7c-0.1,0.1-0.2,0.3-0.2,0.4c-0.1,0.6-0.1,1.8,0,2.3c0,0.2-0.1,0.3-0.2,0.4
		C6.2,24,6.1,24,6,24z M5.4,1.9C5.3,2.1,5.1,2.3,4.9,2.5c-2.2,2.1-3.5,5.1-3.7,8.7c0,0.4,0,0.7,0,1.1c0.1,1.5,0.5,3,1.3,4.4
		C2.7,17,3,17.5,3.3,17.9c1,1.3,2,2.1,2.2,2.3c0.1,0.1,0.1,0.1,0.2,0.2c0,0.1,0.1,0.2,0.1,0.3c0-0.3,0.1-0.5,0.3-0.8l0.1-0.1
		c0.1-0.1,0.4-0.3,0.7-0.6c1.5-1.5,3.7-4.6,2.8-9.6C8.7,5.7,7.2,4,6.2,3C5.9,2.7,5.7,2.5,5.6,2.3C5.6,2.2,5.5,2.1,5.4,1.9z"/>
	<polygon points="5,20.3 5.5,9.1 6,20.3 5.6,20.9 	"/>
</g>
</svg>
