<?xml version="1.0" encoding="utf-8"?>
<!-- Generator: Adobe Illustrator 23.1.1, SVG Export Plug-In . SVG Version: 6.00 Build 0)  -->
<svg version="1.1" id="Layer_1" xmlns="http://www.w3.org/2000/svg" xmlns:xlink="http://www.w3.org/1999/xlink" x="0px" y="0px"
	 viewBox="0 0 56.3 46.5" style="enable-background:new 0 0 56.3 46.5;" xml:space="preserve">
<path d="M20.1,37.8v-9.1l13.4-7.8v-4.8l-12.1,7l-12.1-7v15.4L0,26.2V0l21.4,12.4L42.9,0.1v26.5L42.3,27l-11.4,6.7L35,36l12-7.1v-7.8
	l9.3-5.3v18.5L34.8,46.5L20.1,37.8z M34.8,43.5l18.8-10.8V20.1l-4.1,2.3v7.8l-14.6,8.7l-9.3-5.3L40.3,25V4.5L21.4,15.4L2.6,4.6v20.2
	l4.1,2.3V11.6l14.7,8.6l14.7-8.6v10.8l-13.4,7.8v6.2L34.8,43.5z M46.9,5.3l9.3-5.2v10.8l-9.3,5.3V5.3z M49.5,11.7l4.1-2.3V4.5
	l-4.1,2.3V11.7z"/>
</svg>
