<?xml version="1.0" encoding="utf-8"?>
<!-- Generator: Adobe Illustrator 26.3.1, SVG Export Plug-In . SVG Version: 6.00 Build 0)  -->
<svg version="1.1" id="Layer_1" xmlns="http://www.w3.org/2000/svg" xmlns:xlink="http://www.w3.org/1999/xlink" x="0px" y="0px"
	 viewBox="0 0 100 100" style="enable-background:new 0 0 100 100;" xml:space="preserve">
<path d="M79.2,100H20.8C9.4,100.1,0.1,90.9,0,79.5c0-0.1,0-0.2,0-0.3V20.8C-0.1,9.4,9.1,0.1,20.5,0c0.1,0,0.2,0,0.3,0h58.4
	C90.6-0.1,99.9,9.1,100,20.5c0,0.1,0,0.2,0,0.3v58.4c0.1,11.4-9.1,20.7-20.5,20.8C79.4,100,79.3,100,79.2,100z M18.8,5.4
	C11.5,5.3,5.5,11,5.4,18.3c0,0.2,0,0.3,0,0.5v62.6C5.3,88.7,11,94.7,18.3,94.8c0.2,0,0.3,0,0.5,0h62.6c7.3,0.1,13.3-5.6,13.4-12.9
	c0-0.2,0-0.3,0-0.5V18.8c0.1-7.3-5.6-13.3-12.9-13.4c-0.2,0-0.3,0-0.5,0H18.8z"/>
<g id="Photoshop">
	<g>
		<g>
			<path d="M66.4,80.1c-3.5,0-7.1-0.8-10.3-2.4c-1-0.4-1.6-1.3-1.6-2.7v-7.3c0-1.5,0.9-2.1,1.3-2.3c0.2-0.1,0.6-0.3,1.1-0.3
				c0.5,0,1,0.2,1.5,0.5c2.6,1.7,5.6,2.6,8.7,2.6c2.1,0,2.9-0.5,3.2-0.8c0.3-0.3,0.3-0.7,0.3-1c0-0.4,0-1.5-5.1-4.1
				c-7.8-3.8-11-7.9-11-14.4c0-8.1,6.5-13.8,15.7-13.8c0.3,0,0.6,0,1,0c2.9,0,5.8,0.5,8.5,1.5l0.1,0l0.4,0.2l0.1,0
				c0.9,0.6,1.4,1.7,1.4,2.8l0,6.8c0,0.9-0.4,1.6-1,2.1c-0.3,0.2-0.8,0.5-1.6,0.5c-0.3,0-0.5,0-0.8-0.1l-0.1,0l-0.4-0.2l-0.1,0
				c-2.2-1.3-4.7-2-7.3-2l-0.2,0c-1,0-3.2,0.2-3.2,1.6c0,0.5,0,1.3,5,3.9c8,3.9,11.3,8.1,11.3,14.6c0,8.7-6.4,14.3-16.2,14.3
				C66.8,80.1,66.6,80.1,66.4,80.1z M58.6,74.3c2.4,1.1,5.1,1.6,7.6,1.6c0.2,0,0.4,0,0.6,0c7.6,0,12.1-3.8,12.1-10.1
				c0-4.1-1.5-7.2-9-10.9c-4.9-2.6-7.3-4.4-7.3-7.6c0-2.6,1.9-5.7,7.3-5.7l0.3,0c2.3,0,4.7,0.5,6.9,1.4l0-3.8c-2-0.7-4.1-1-6.3-1
				c-0.3,0-0.6,0-0.9,0c-7,0-11.6,3.9-11.6,9.7c0,4.8,2.3,7.6,8.7,10.7c4.6,2.4,7.4,4.5,7.4,7.8c0,1.4-0.5,6-7.6,6
				c-2.9,0-5.8-0.6-8.4-1.8L58.6,74.3z M56.5,68.2L56.5,68.2z M19.5,79.1c-1.6,0-2.7-1.1-2.7-2.7V23c0-1.7,1.6-2.7,3.2-2.7
				c3-0.2,7.7-0.2,12.7-0.2c13.4,0,21.1,7,21.1,19.3c0,12.6-8.3,20.1-22.3,20.1c-0.7,0-1.3,0-1.8,0v16.9c0,1.6-1.1,2.7-2.7,2.7H19.5
				z M25.6,74.9V55.3h2.1c0.6,0,1.1,0,1.7,0c0.6,0,1.2,0.1,2.2,0.1c5.4,0,18.1-1.6,18.1-16c0-9.9-5.9-15.1-16.9-15.1
				c-4.5,0-8.7,0.1-11.7,0.2v50.4L25.6,74.9z"/>
		</g>
		<g>
			<path d="M30.7,51.7c-1.1,0-2.1,0-3.2-0.1l-1.9-0.2V28.2h2.1c0.3,0,0.8,0,1.3,0l0.1,0c0.9,0,2.1-0.1,3.3-0.1
				c7.9,0,12.5,4.3,12.5,11.6c0,7.8-4.7,12-13.3,12C31.3,51.7,31,51.7,30.7,51.7z M29.7,47.5c0.3,0,0.6,0,1,0c0.3,0,0.6,0,0.9,0
				c6.3,0,9.2-2.4,9.2-7.9c0-4.9-2.8-7.4-8.4-7.4c-0.9,0-1.9,0-2.7,0.1V47.5z"/>
		</g>
	</g>
</g>
</svg>
