<?xml version="1.0" encoding="utf-8"?>
<!-- Generator: Adobe Illustrator 26.3.1, SVG Export Plug-In . SVG Version: 6.00 Build 0)  -->
<svg version="1.1" id="Layer_1" xmlns="http://www.w3.org/2000/svg" xmlns:xlink="http://www.w3.org/1999/xlink" x="0px" y="0px"
	 viewBox="0 0 75 75" style="enable-background:new 0 0 75 75;" xml:space="preserve">
<g>
	<path d="M25.9,75.7c-0.2,0-0.4,0-0.5-0.1L-0.2,60.7l-0.1-0.1c-0.2-0.2-0.4-0.5-0.4-0.9L4,11.6c0-0.6,0.5-0.8,0.6-0.9L31.8-0.6h0.3
		c0.1,0,0.4,0,0.7,0.2l12.8,8.3l9.3-8.2c0.1-0.2,0.3-0.3,0.8-0.3c0.5,0,0.9,0.4,1,0.7l0,0.1l1.8,12.7h2c0.9,0,1.6,0.7,1.6,1.6v4.3
		l12.5,10.7c0.3,0.3,0.5,0.9,0.2,1.3l-5.7,11.7l6.3,24c0.2,0.5-0.1,1-0.6,1.3l-22.8,7.8h-0.5l-20.3-5.7l-4.6,5.4
		C26.5,75.5,26.2,75.7,25.9,75.7z M51.9,73.3L73.2,66l-8.6-32.7l-2.5,0.9v26.3c0,0.9-0.7,1.6-1.6,1.6H23.8l-0.6,3.1L51.9,73.3z
		 M25.8,73.2l3.4-4l-7.5-2.1c-0.4-0.1-0.6-0.3-0.8-0.6c-0.1-0.2-0.1-0.5,0-0.8l0.7-3.5h-7.1c-0.9,0-1.6-0.7-1.6-1.6v-46
		c0-0.9,0.7-1.6,1.6-1.6H40l3.8-3.4L32,1.8l-26,10.7L1.6,59.1L25.8,73.2z M58.9,58.9V16.1H16.1v42.8H58.9z M65.3,30.6
		c0.5,0,0.9,0.4,1,0.7l0,0.1l2,7.7l4.2-8.6l-10.5-8.8v10l2.9-1.1H65.3z M56.3,12.9L54.8,2.7L43.3,12.9H56.3z M19,55.7
		c-0.6,0-1.1-0.5-1.1-1.1v-3.1c0-0.6,0.5-1.1,1.1-1.1h17c0.6,0,1.1,0.5,1.1,1.1v3.1c0,0.6-0.5,1.1-1.1,1.1H19z M34.9,53.5v-0.9H20.1
		v0.9H34.9z M45.2,40.9c-5.9,0-10.6-4.7-10.6-10.6c-0.4,1.1-1.1,2.1-2.1,2.9c-1.6,1.3-3.7,1.9-6.1,1.9h-2.1v4.5
		c0,0.6-0.5,1.1-1.1,1.1h-4.1c-0.6,0-1.1-0.5-1.1-1.1V20.7c0-0.6,0.5-1.1,1.1-1.1h0.6v0.1h7c2.5,0,4.5,0.7,6.1,2
		c1.4,1.2,2.2,3,2.3,5.1c1.4-4.5,5.4-7.5,10.4-7.5c3.5,0,6.1,1,8.3,3.3c0.4,0.4,0.4,1.1,0,1.5l-2.6,3.1c-0.2,0.2-0.5,0.4-0.8,0.4
		c-0.3,0-0.6-0.1-0.8-0.3c-1.4-1.3-2.6-1.8-4.1-1.8c-2.5,0-4.4,2.1-4.4,4.8c0,2.8,1.8,4.8,4.4,4.8c1.8,0,2.8-0.7,4.2-1.9
		c0.2-0.2,0.5-0.3,0.8-0.3c0.3,0,0.6,0.1,0.8,0.3l2.6,2.6c0.2,0.2,0.3,0.5,0.3,0.8c0,0.3-0.1,0.6-0.3,0.8c-2.4,2.5-5,3.7-8.5,3.7
		L45.2,40.9z M45.5,21.5c-5,0-8.7,3.7-8.7,8.6c0,4.8,3.6,8.5,8.4,8.5l0.2,0c2.9,0,4.6-0.9,6.2-2.3l-1.2-1.2
		c-1.4,1.1-2.8,1.9-4.9,1.9c-3.5,0-6.1-2.7-6.5-6.4c-0.1-0.1-0.1-0.3-0.1-0.5v-0.3l0.1-0.1c0.2-3.8,2.9-6.5,6.5-6.5
		c1.7,0,3.2,0.6,4.7,1.8l1.2-1.4C49.9,22.2,48.3,21.5,45.5,21.5z M22.1,38.6v-4.5c0-0.6,0.5-1.1,1.1-1.1h3.2c1.8,0,3.5-0.5,4.7-1.5
		c1.2-1.1,1.8-2.5,1.8-4.1v-0.1c0-1.6-0.5-2.9-1.6-4c-1-1-2.6-1.5-4.6-1.5h-6.5v16.8H22.1z M23.2,31.3c-0.6,0-1.1-0.5-1.1-1.1v-5.8
		c0-0.6,0.5-1.1,1.1-1.1h3.2c1.2,0,2.3,0.3,3.1,0.9c0.9,0.6,1.4,1.7,1.4,3c0,1.3-0.4,2.3-1.2,3c-0.9,0.8-2,1.1-3.2,1.1H23.2z
		 M26.5,29.2c0.9,0,1.4-0.3,1.7-0.6c0.3-0.3,0.5-0.7,0.5-1.2v-0.1c0-0.8-0.2-1.1-0.5-1.3c-0.4-0.3-1-0.5-1.8-0.5h-2.1v3.7H26.5z"/>
</g>
</svg>
