<?xml version="1.0" encoding="utf-8"?>
<!-- Generator: Adobe Illustrator 26.3.1, SVG Export Plug-In . SVG Version: 6.00 Build 0)  -->
<svg version="1.1" id="Layer_1" xmlns="http://www.w3.org/2000/svg" xmlns:xlink="http://www.w3.org/1999/xlink" x="0px" y="0px"
	 viewBox="0 0 180.1 180.1" style="enable-background:new 0 0 180.1 180.1;" xml:space="preserve">
<g>
	<path d="M90.1,180.5c-14.6,0-26-3.2-33.7-9.4c-6.1-4.9-9.7-11.7-9.7-18.7v-22.8H27.8c-7.7,0-15.1-3.7-19.8-9.8
		c-5.4-6.9-8.3-17.1-8.3-29.7c0-12.5,2.9-22.8,8.3-29.7c4.7-6.1,12.1-9.8,19.8-9.8h58.1v-3.3H46.7V27.8c0-7,3.5-13.8,9.7-18.7
		c7.8-6.2,19.1-9.4,33.7-9.4c14.6,0,26,3.1,33.7,9.3c6.1,4.9,9.7,11.7,9.7,18.8v22.8h18.9c7.7,0,15.1,3.7,19.8,9.8
		c5.5,6.9,8.3,16.9,8.3,29.7c0,12.7-2.8,22.7-8.3,29.7c-4.7,6.1-12.1,9.8-19.8,9.8H94.3v3.3h39.2v19.5c0,7-3.5,13.8-9.7,18.7
		C116.1,177.3,104.7,180.5,90.1,180.5z M66.6,94.3c-5.4,0-10.1,3.9-11.2,9.2c-0.2,0.7-0.2,1.5-0.2,2.3v46.6c0,2.6,0.8,7.6,6.5,12.1
		c4.3,3.4,12.7,7.5,28.5,7.5c15.8,0,24.2-4.1,28.5-7.5c5.6-4.5,6.5-9.5,6.5-12.1v-11.1H85.9v-20.2h66.7c5.1,0,10-2.5,13-6.6
		c3-3.8,6.6-11.1,6.6-24.4c0-13.3-3.6-20.6-6.5-24.4c-3-4.1-7.8-6.6-13-6.6l-19.1,0v15.4c0,10.9-9,19.8-19.9,19.9H66.6z M27.6,59
		c-5.1,0-10,2.5-13,6.6c-3,3.8-6.5,11.1-6.5,24.4c0,13.3,3.6,20.6,6.5,24.4c3,4.1,7.9,6.6,13,6.6h19v-15.4c0-1.3,0.1-2.7,0.4-4
		c0.3-1.3,0.7-2.5,1.2-3.7c3.1-7.4,10.3-12.1,18.3-12.2h47c6.3,0,11.4-5.1,11.4-11.5V27.8c0-3.2-1.1-8-6.5-12.2
		c-4.2-3.4-12.5-7.3-28.2-7.4l-0.3,0c-15.8,0-24.2,4.1-28.5,7.5c-5.7,4.5-6.5,9.5-6.5,12.1v11.1h39.2V59L27.6,59z M109.7,160.9
		c-4.5,0-8.1-3.6-8.1-8.1s3.6-8.1,8.1-8.1c4.5,0,8.1,3.7,8.1,8.1C117.8,157.2,114.1,160.9,109.7,160.9z M70.5,35.6
		c-4.5,0-8.1-3.7-8.1-8.1c0-4.5,3.7-8.1,8.1-8.1c4.5,0,8.1,3.7,8.1,8.1C78.6,31.9,75,35.6,70.5,35.6L70.5,35.6z"/>
</g>
</svg>
