<svg id="Layer_1" data-name="Layer 1" xmlns="http://www.w3.org/2000/svg" viewBox="0 0 41.11 36.4"><title>react</title><path d="M28.51,23.52a3.78,3.78,0,0,1-3.74,3.74,3.74,3.74,0,0,1,0-7.48A3.78,3.78,0,0,1,28.51,23.52Z" transform="translate(-4.47 -5.31)"/><path d="M24.77,31.8h-1A42.81,42.81,0,0,1,11.61,30h.33a14.25,14.25,0,0,1-5.36-2.93h0a5.44,5.44,0,0,1-2.11-3.73h0c0-2.44,2.6-4.72,7.14-6.34a40.18,40.18,0,0,1,12.84-1.95h1.3A41.56,41.56,0,0,1,38.58,17l-.32-.16a17.55,17.55,0,0,1,5.2,2.76h0a5.1,5.1,0,0,1,2.11,3.57h0c0,2.44-2.92,5-7.8,6.67a39.93,39.93,0,0,1-12,1.78,2.91,2.91,0,0,1-1,.16Zm0-14.94h-.48a39.54,39.54,0,0,0-12.51,1.95h.32c-4.22,1.46-6,3.41-6,4.71s1.95,3.57,6.34,5A36.52,36.52,0,0,0,23.8,30.18h1.95a40,40,0,0,0,11.7-1.79h-.33c4.55-1.46,6.5-3.57,6.5-5a3.16,3.16,0,0,0-1.46-2.28h0a20.58,20.58,0,0,0-4.55-2.44h-.16a40.83,40.83,0,0,0-12-1.78Z" transform="translate(-4.47 -5.31)"/><path d="M16.49,41.72h0a3.52,3.52,0,0,1-1.95-.49h0c-2.11-1.14-2.76-4.71-1.95-9.26a47,47,0,0,1,5-12.84l-.17.16A40.35,40.35,0,0,1,25.75,8.9h0a19.06,19.06,0,0,1,4.87-3.09h.17a4.79,4.79,0,0,1,4.22,0h0c2.11,1.3,2.93,5,2,10.07a44.65,44.65,0,0,1-4.87,12l.16-.17a43.27,43.27,0,0,1-8,10.4h0a14.53,14.53,0,0,1-5,3.09h-.16a8.27,8.27,0,0,1-2.6.49Zm1.79-21.94.81.49A39.12,39.12,0,0,0,14.38,32v.32c-.82,4.23,0,6.83,1.13,7.48a2.35,2.35,0,0,0,1,.32h.16c1.46,0,3.74-1,6.34-3.25a39.87,39.87,0,0,0,7.47-9.75l.16-.16a41.47,41.47,0,0,0,4.55-11v-.32c1-4.71.17-7.48-1-8.13a2.82,2.82,0,0,0-1.14-.16,3.7,3.7,0,0,0-1.46.33h0a15.29,15.29,0,0,0-4.39,2.76h0a44.94,44.94,0,0,0-7.8,9.75l-.32.16Z" transform="translate(-4.47 -5.31)"/><path d="M33.06,41.72c-2,0-4.55-1.14-7.15-3.42a42.4,42.4,0,0,1-8.28-10.39l-.17-.17a40.56,40.56,0,0,1-4.87-12.18v-.33a12,12,0,0,1-.33-3.57,11.79,11.79,0,0,1,.17-2.44v.16a5.1,5.1,0,0,1,2.11-3.57h0c2.11-1.3,5.85,0,9.59,3.41a42.37,42.37,0,0,1,7.79,9.91l.17.16A38.85,38.85,0,0,1,37,31.15v.33a12.54,12.54,0,0,1,.33,3.57,13.32,13.32,0,0,1-.17,2.6v-.16A5.12,5.12,0,0,1,35,41.23h0a3.52,3.52,0,0,1-1.95.49Zm-14-14.95a40.91,40.91,0,0,0,8,10.07h0c3.25,2.76,5.85,3.41,7,2.76s2.11-3.41,1.13-8a42.23,42.23,0,0,0-4.87-11.7l.16.17A40.81,40.81,0,0,0,23,10.36h0c-3.58-3.09-6.5-3.9-7.64-3.25a5.57,5.57,0,0,0-1.3,2.6h0c0,.65-.16,1.3-.16,1.95a24.58,24.58,0,0,0,.32,3.41v-.16a35.93,35.93,0,0,0,4.88,12v-.16Z" transform="translate(-4.47 -5.31)"/></svg>