<?xml version="1.0" encoding="utf-8"?>
<!-- Generator: Adobe Illustrator 26.3.1, SVG Export Plug-In . SVG Version: 6.00 Build 0)  -->
<svg version="1.1" id="Layer_1" xmlns="http://www.w3.org/2000/svg" xmlns:xlink="http://www.w3.org/1999/xlink" x="0px" y="0px"
	 viewBox="0 0 50 50" style="enable-background:new 0 0 50 50;" xml:space="preserve">
<path d="M39.6,50H10.4C4.6,50,0,45.4,0,39.6V10.4C0,4.6,4.6,0,10.4,0h29.2C45.4,0,50,4.6,50,10.4v29.2C50,45.4,45.4,50,39.6,50z
	 M9.4,2.7c-3.8,0-6.7,2.9-6.7,6.7v31.3c0,3.8,2.9,6.7,6.7,6.7h31.3c3.8,0,6.7-2.9,6.7-6.7V9.4c0-3.8-2.9-6.7-6.7-6.7H9.4z"/>
<path d="M30.8,28h-8c-1.2,0-2-0.6-2-1.6s0.8-1.6,2-1.6h8c1.2,0,2,0.6,2,1.6S32,28,30.8,28z M19.8,21.7l-5.6,5.6
	c-0.8,0.8-1.9,1-2.5,0.3s-0.6-1.7,0.3-2.5l5.6-5.6c0.8-0.8,1.9-1,2.5-0.3S20.7,20.8,19.8,21.7z M17.6,21L12,15.3
	c-0.8-0.8-1-1.9-0.3-2.5c0.7-0.7,1.7-0.6,2.5,0.3l5.6,5.6c0.8,0.8,1,1.9,0.3,2.5S18.4,21.8,17.6,21z"/>
</svg>
