<?xml version="1.0" encoding="utf-8"?>
<!-- Generator: Adobe Illustrator 26.3.1, SVG Export Plug-In . SVG Version: 6.00 Build 0)  -->
<svg version="1.1" id="Layer_1" xmlns="http://www.w3.org/2000/svg" xmlns:xlink="http://www.w3.org/1999/xlink" x="0px" y="0px"
	 viewBox="0 0 50 50" style="enable-background:new 0 0 50 50;" xml:space="preserve">
<path d="M49,50H1c-0.6,0-1-0.5-1-1V1c0-0.6,0.5-1,1-1h48c0.6,0,1,0.5,1,1v48C50,49.5,49.5,50,49,50z M2.6,47.4h44.8V2.6H2.6V47.4z
	 M37.1,46c-0.7,0-1.6,0-2.3-0.2c-2.2-0.4-4.4-1.6-5.8-3.1c-2-2.2-1.6-3-1.5-3.3c0.2-0.2,0.3-0.4,0.8-0.6l0,0
	c0.2-0.1,1.1-0.6,1.9-1.1l1.5-0.8c0.5-0.3,1.2-0.1,1.5,0.3l0.3,0.4c0.3,0.5,1.2,1.3,1.5,1.5c1.3,0.6,3,0.5,3.7-0.1
	c0.2-0.1,0.3-0.3,0.3-0.6c0-0.5,0-0.5-0.2-0.7c-0.2-0.3-1.1-0.8-3-1.7c-2.8-1.2-4-1.9-5.2-3.2c-0.7-0.8-1.3-1.8-1.6-3
	c-0.2-1-0.3-3-0.1-3.8c0.6-3,2.9-5.1,6-5.7c1.1-0.2,3.3-0.1,4.3,0.1c1.4,0.3,2.8,1.1,3.7,2.1c0,0,1.3,1.4,1.5,2.1
	c0.2,1,0.2,1.2-4,3.8c-0.6,0.4-1.3,0.1-1.9-0.8c-0.5-0.7-1-1-1.6-1c-0.5,0-0.8,0.1-1.1,0.3c-0.1,0.1-0.2,0.4-0.2,0.6
	c0,0.1,0,0.3,0.1,0.4v0.1c0.2,0.3,0.5,0.6,2.4,1.5c3.8,1.7,5.5,2.8,6.7,4.4c1.3,1.9,1.6,4.9,0.7,7.2c-1,2.5-3.3,4.1-6.5,4.8
	C38.4,45.9,37.7,46,37.1,46z M30,40.5c0.2,0.3,0.4,0.6,0.6,0.8c1.1,1.2,2.8,2,4.6,2.3c0.8,0.1,2.8,0.2,3.5,0
	c2.4-0.4,4.1-1.6,4.8-3.3c0.6-1.6,0.4-3.8-0.5-5.2c-0.8-1.3-2.2-2.2-5.7-3.7c-2-0.8-3-1.4-3.5-2.4l0,0c-0.2-0.4-0.3-1-0.3-1.4
	c0-1,0.3-1.8,1-2.3c0.6-0.6,1.6-1,2.8-0.8c1.3,0.1,2.2,0.6,3,1.6c0.6-0.4,1.3-0.8,1.8-1.2c-0.2-0.2-0.3-0.4-0.5-0.6
	c-0.7-0.7-1.6-1.3-2.6-1.5c-0.7-0.2-2.6-0.2-3.4-0.1c-2.3,0.4-3.9,1.9-4.3,3.9c-0.1,0.5-0.1,2.2,0.1,2.8c0.2,0.7,0.6,1.5,1.2,2.1
	c1,1,1.9,1.6,4.3,2.6c2.5,1.2,3.4,1.6,3.9,2.4c0.4,0.6,0.5,1.1,0.5,1.9c0,1-0.4,1.8-1.1,2.3c-1.4,1.3-4.1,1.5-6.1,0.4
	c-0.6-0.3-1.5-1.1-2-1.8l-0.6,0.3C31.4,39.7,30,40.5,30,40.5z M20.6,45.7h-4.7c-0.6,0-1.1-0.5-1.1-1.1V26.9H9.4
	c-0.6,0-1.1-0.5-1.1-1.1v-2c0-2.2,0-2.6,0.4-3c0,0,0.1,0,0.1-0.1l0,0l0,0c0.5-0.2,2-0.2,9.5-0.2h8.9c0.6,0,1.1,0.5,1.1,1.1v4.1
	c0,0.6-0.5,1.1-1.1,1.1l0,0h-5.5v17.7C21.6,45.3,21.2,45.7,20.6,45.7z M17,43.5h2.4V25.9c0-0.6,0.5-1.1,1.1-1.1H26v-1.9h-7.7
	c-2.6,0-5.2,0-7.8,0V24v0.7h5.5c0.6,0,1.1,0.5,1.1,1.1V43.5L17,43.5z"/>
</svg>
