<?xml version="1.0" encoding="utf-8"?>
<!-- Generator: Adobe Illustrator 26.3.1, SVG Export Plug-In . SVG Version: 6.00 Build 0)  -->
<svg version="1.1" id="Layer_1" xmlns="http://www.w3.org/2000/svg" xmlns:xlink="http://www.w3.org/1999/xlink" x="0px" y="0px"
	 viewBox="0 0 24 24" style="enable-background:new 0 0 24 24;" xml:space="preserve">
<path d="M23.5,24h-23C0.2,24,0,23.8,0,23.5v-23C0,0.2,0.2,0,0.5,0h23C23.8,0,24,0.2,24,0.5v23C24,23.8,23.8,24,23.5,24z M1,23h22V1
	H1V23z M18.2,22.1c-0.4,0-0.7,0-1.1-0.1c-1-0.2-2-0.7-2.6-1.4c-0.9-1-0.7-1.4-0.7-1.5c0.1-0.1,0.2-0.2,0.4-0.3l0,0
	c0.1-0.1,0.5-0.3,0.9-0.5l0.7-0.4c0.2-0.1,0.5-0.1,0.7,0.2l0.1,0.2c0.2,0.2,0.5,0.6,0.7,0.7c0.6,0.3,1.4,0.2,1.7,0
	c0.1-0.1,0.1-0.2,0.1-0.3c0-0.2,0-0.2-0.1-0.3c-0.1-0.2-0.5-0.4-1.4-0.7c-1.2-0.5-1.8-0.9-2.3-1.5c-0.3-0.4-0.6-0.8-0.7-1.3
	c-0.1-0.4-0.1-1.3-0.1-1.7c0.3-1.3,1.3-2.3,2.8-2.6c0.5-0.1,1.5-0.1,2,0.1c0.6,0.2,1.2,0.5,1.7,1c0,0,0.6,0.6,0.7,1
	c0.1,0.4,0.1,0.4-1.8,1.6c-0.3,0.2-0.6,0.1-0.9-0.4c-0.2-0.3-0.4-0.4-0.7-0.4c-0.2,0-0.4,0-0.5,0.1c-0.1,0.1-0.1,0.2-0.1,0.3
	c0,0.1,0,0.1,0,0.2l0,0c0.1,0.2,0.3,0.3,1.1,0.7c1.7,0.8,2.5,1.3,3,2c0.6,0.9,0.7,2.2,0.3,3.3c-0.4,1.1-1.5,1.9-2.9,2.1
	C18.7,22.1,18.5,22.1,18.2,22.1z M14.9,19.6c0.1,0.1,0.2,0.3,0.3,0.4c0.5,0.5,1.2,0.9,2.1,1.1c0.4,0.1,1.2,0.1,1.6,0
	c1.1-0.2,1.9-0.7,2.2-1.5c0.3-0.7,0.2-1.7-0.2-2.4c-0.4-0.6-1-1-2.6-1.7c-0.9-0.4-1.3-0.6-1.6-1.1l0,0c-0.1-0.2-0.2-0.4-0.2-0.6
	c0-0.5,0.1-0.8,0.4-1.1c0.3-0.3,0.7-0.4,1.3-0.4c0.6,0,1,0.3,1.4,0.7c0.3-0.2,0.6-0.4,0.8-0.5c-0.1-0.1-0.2-0.2-0.2-0.3
	c-0.3-0.3-0.7-0.6-1.2-0.7c-0.3-0.1-1.2-0.1-1.5,0c-1,0.2-1.8,0.9-2,1.8c-0.1,0.2,0,1,0,1.2c0.1,0.4,0.3,0.7,0.5,0.9
	c0.4,0.4,0.9,0.7,2,1.2c1.2,0.5,1.5,0.7,1.8,1.1c0.2,0.3,0.3,0.5,0.3,0.9c0,0.4-0.2,0.8-0.5,1.1c-0.6,0.6-1.9,0.7-2.8,0.2
	c-0.3-0.1-0.7-0.5-0.9-0.8l-0.3,0.2C15.6,19.2,14.9,19.6,14.9,19.6z M10.6,22H8.5C8.3,22,8,21.8,8,21.5v-8H5.5C5.3,13.5,5,13.3,5,13
	v-0.9c0-1,0-1.2,0.2-1.3c0,0,0,0,0,0l0,0l0,0c0.2-0.1,0.9-0.1,4.3-0.1l4,0c0.3,0,0.5,0.2,0.5,0.5l0,1.9c0,0.3-0.2,0.5-0.5,0.5
	c0,0,0,0,0,0h-2.5v8C11.1,21.8,10.9,22,10.6,22z M9,21h1.1v-8c0-0.3,0.2-0.5,0.5-0.5h2.5l0-0.9l-3.5,0c-1.2,0-2.4,0-3.6,0l0,0.5v0.4
	h2.5C8.8,12.5,9,12.7,9,13L9,21L9,21z"/>
</svg>
