<?xml version="1.0" encoding="utf-8"?>
<!-- Generator: Adobe Illustrator 26.3.1, SVG Export Plug-In . SVG Version: 6.00 Build 0)  -->
<svg version="1.1" id="Layer_1" xmlns="http://www.w3.org/2000/svg" xmlns:xlink="http://www.w3.org/1999/xlink" x="0px" y="0px"
	 viewBox="0 0 100 100" style="enable-background:new 0 0 100 100;" xml:space="preserve">
<path d="M85.1,0c-0.2,0-0.4,0-0.6,0.1L47.2,9.2c-0.7,0.2-1.3,0.7-1.6,1.4l-4,9.9H29.5c-0.6,0-1.2,0.3-1.7,0.7L0.6,50.7
	c-0.8,0.9-0.8,2.3,0.1,3.2l28.6,27.3c0.4,0.4,1,0.6,1.6,0.6h13.1l4,9.9c0.3,0.7,0.9,1.3,1.7,1.4l39.7,6.8c1.2,0.2,2.3-0.6,2.6-1.7
	l8-36.9c0.1-0.6,0-1.2-0.3-1.7L94.4,51l5.4-11.4c0.3-0.5,0.3-1.2,0.1-1.7L87.2,1.5C86.9,0.6,86,0,85.1,0z M83.6,5l11.7,33.5
	l-3.4,7.1L84,19.8c-0.3-1-1.2-1.6-2.2-1.6c-0.8,0-1.6,0.5-2,1.3L63.9,51.3c-0.4,0.7-0.3,1.6,0.1,2.3l18.2,27.8
	c0.5,0.8,1.4,1.1,2.3,1c0.9-0.2,1.6-0.8,1.8-1.7l5.6-24.8l3.4,5.5l-7.4,33.9l-36.3-6.2l-2.5-6.4l26.3,4.9c0.9,0.2,1.8-0.2,2.3-1
	c0.5-0.8,0.5-1.8,0-2.5l-19-28.4c-0.4-0.6-1.1-1-1.9-1H20.5c-0.9,0-1.8,0.6-2.1,1.5c-0.3,0.9-0.1,1.9,0.6,2.5l20.6,18.8h-7.8
	L5.5,52.2L30.5,25H38L18.8,46.2c-0.6,0.7-0.8,1.6-0.4,2.5c0.4,0.8,1.2,1.3,2.1,1.3h36.4c0.9,0,1.7-0.5,2-1.3l15.9-31.8
	c0.3-0.7,0.3-1.5-0.1-2.2c-0.4-0.7-1.1-1.1-1.9-1.1c-0.2,0-0.4,0-0.6,0.1l-25.3,5.8l2.5-6.2L83.6,5z M68.5,19.2L55.4,45.5H25.6
	l18.8-20.7L68.5,19.2z M81.3,26.5l7.2,23.5l-5.5,24.2L68.5,52.1L81.3,26.5z M26.3,59.1h29.3L70.9,82l-24.4-4.5L26.3,59.1z"/>
</svg>
